{
    "accessors" : [
        {
            "bufferView" : 0, 
            "componentType" : 5125, 
            "count" : 3529260, 
            "max" : [
                3529137
            ], 
            "min" : [
                0
            ], 
            "type" : "SCALAR"
        }, 
        {
            "bufferView" : 1, 
            "componentType" : 5126, 
            "count" : 3529138, 
            "max" : [
                1046.34814453125, 
                1231.995361328125, 
                354.4375
            ], 
            "min" : [
                -1048.074951171875, 
                -547.51904296875, 
                -323.8349609375
            ], 
            "type" : "VEC3"
        }, 
        {
            "bufferView" : 2, 
            "componentType" : 5126, 
            "count" : 3529138, 
            "max" : [
                1.0, 
                1.0, 
                1.0
            ], 
            "min" : [
                -0.9999971389770508, 
                -1.0, 
                -1.0
            ], 
            "type" : "VEC3"
        }
    ], 
    "asset" : {
        "generator" : "Soft8Soft Verge3D for Blender add-on", 
        "version" : "2.0"
    }, 
    "bufferViews" : [
        {
            "buffer" : 0, 
            "byteLength" : 14117040, 
            "byteOffset" : 0, 
            "target" : 34963
        }, 
        {
            "buffer" : 0, 
            "byteLength" : 42349656, 
            "byteOffset" : 14117040, 
            "target" : 34962
        }, 
        {
            "buffer" : 0, 
            "byteLength" : 42349656, 
            "byteOffset" : 56466696, 
            "target" : 34962
        }
    ], 
    "buffers" : [
        {
            "byteLength" : 98816352, 
            "uri" : "E14.5 XX 15-40-26.bin"
        }
    ], 
    "cameras" : [
        {
            "extensions" : {
                "S8S_v3d_camera_data" : {
                    "controls" : "ORBIT", 
                    "enablePan" : true, 
                    "moveSpeed" : 1.0, 
                    "orbitMaxDistance" : 100.0, 
                    "orbitMaxPolarAngle" : 3.1415927410125732, 
                    "orbitMinDistance" : 0.0, 
                    "orbitMinPolarAngle" : 0.0, 
                    "orbitTarget" : [
                        0.0, 
                        0.0, 
                        -0.0
                    ], 
                    "rotateSpeed" : 1.0, 
                    "viewportFitInitialAspect" : 1.7777777159655586, 
                    "viewportFitType" : "AUTO"
                }
            }, 
            "name" : "Camera", 
            "perspective" : {
                "aspectRatio" : 1.7777777159655586, 
                "yfov" : 1.3538297568088729, 
                "zfar" : 100.0, 
                "znear" : 0.10000000149011612
            }, 
            "type" : "perspective"
        }
    ], 
    "extensions" : {
        "S8S_v3d_data" : {
            "lights" : [
                {
                    "color" : [
                        1.0, 
                        1.0, 
                        1.0
                    ], 
                    "intensity" : 1.0, 
                    "name" : "Lamp", 
                    "profile" : "blender", 
                    "shadow" : {
                        "bias" : -0.001500000013038516, 
                        "cameraFar" : 100.0, 
                        "cameraFov" : 1.5707963705062866, 
                        "cameraNear" : 0.20000000298023224, 
                        "cameraSize" : 10.0, 
                        "mapSize" : 1024, 
                        "radius" : 1.0
                    }, 
                    "type" : "directional"
                }, 
                {
                    "color" : [
                        0, 
                        0, 
                        0
                    ], 
                    "name" : "Ambient_Scene", 
                    "profile" : "blender", 
                    "type" : "ambient"
                }
            ]
        }
    }, 
    "extensionsUsed" : [
        "S8S_v3d_material_data", 
        "S8S_v3d_camera_data", 
        "S8S_v3d_data", 
        "S8S_v3d_mesh_data", 
        "S8S_v3d_node_data", 
        "S8S_v3d_scene_data"
    ], 
    "materials" : [
        {
            "extensions" : {
                "S8S_v3d_material_data" : {
                    "nodeGraph" : {
                        "edges" : [
                            {
                                "fromNode" : 0, 
                                "fromOutput" : 0, 
                                "toInput" : 0, 
                                "toNode" : 1
                            }
                        ], 
                        "nodes" : [
                            {
                                "inputs" : [
                                    [
                                        0.05087608844041824, 
                                        0.05087608844041824, 
                                        0.05087608844041824, 
                                        1.0
                                    ], 
                                    1.0
                                ], 
                                "is_active_output" : false, 
                                "name" : "Background", 
                                "outputs" : [
                                    [
                                        0, 
                                        0, 
                                        0, 
                                        0
                                    ]
                                ], 
                                "type" : "BACKGROUND"
                            }, 
                            {
                                "inputs" : [
                                    [
                                        0, 
                                        0, 
                                        0, 
                                        0
                                    ], 
                                    [
                                        0, 
                                        0, 
                                        0, 
                                        0
                                    ]
                                ], 
                                "is_active_output" : true, 
                                "name" : "World Output", 
                                "outputs" : [], 
                                "type" : "OUTPUT_WORLD"
                            }
                        ]
                    }, 
                    "useCastShadows" : true, 
                    "useShadows" : true
                }
            }, 
            "name" : "Verge3D_Environment_World"
        }, 
        {
            "extensions" : {
                "S8S_v3d_material_data" : {
                    "nodeGraph" : {
                        "edges" : [
                            {
                                "fromNode" : 1, 
                                "fromOutput" : 0, 
                                "toInput" : 0, 
                                "toNode" : 0
                            }, 
                            {
                                "fromNode" : 1, 
                                "fromOutput" : 1, 
                                "toInput" : 1, 
                                "toNode" : 0
                            }
                        ], 
                        "nodes" : [
                            {
                                "inputs" : [
                                    [
                                        1, 
                                        1, 
                                        1, 
                                        1
                                    ], 
                                    1
                                ], 
                                "is_active_output" : true, 
                                "name" : "Output", 
                                "outputs" : [], 
                                "type" : "OUTPUT"
                            }, 
                            {
                                "inputs" : [
                                    [
                                        0.800000011920929, 
                                        0.800000011920929, 
                                        0.800000011920929, 
                                        1
                                    ], 
                                    [
                                        1.0, 
                                        1.0, 
                                        1.0, 
                                        1
                                    ], 
                                    0.800000011920929, 
                                    [
                                        0, 
                                        0, 
                                        0
                                    ], 
                                    [
                                        0, 
                                        0, 
                                        0, 
                                        0
                                    ], 
                                    1.0, 
                                    0.0, 
                                    1.0, 
                                    0, 
                                    1.0, 
                                    0
                                ], 
                                "invertNormal" : false, 
                                "is_active_output" : false, 
                                "materialName" : "Material", 
                                "name" : "Material", 
                                "outputs" : [
                                    [
                                        0, 
                                        0, 
                                        0, 
                                        0
                                    ], 
                                    0, 
                                    [
                                        0, 
                                        0, 
                                        0
                                    ], 
                                    [
                                        0, 
                                        0, 
                                        0, 
                                        0
                                    ], 
                                    [
                                        0, 
                                        0, 
                                        0, 
                                        0
                                    ], 
                                    [
                                        0, 
                                        0, 
                                        0, 
                                        0
                                    ]
                                ], 
                                "specularHardness" : 50, 
                                "specularIntensity" : 0.5, 
                                "type" : "MATERIAL_EXT", 
                                "useDiffuse" : true, 
                                "useShadeless" : false, 
                                "useSpecular" : true
                            }
                        ]
                    }, 
                    "useCastShadows" : true, 
                    "useShadows" : true
                }
            }, 
            "name" : "v3d_default_material"
        }
    ], 
    "meshes" : [
        {
            "extensions" : {
                "S8S_v3d_mesh_data" : {
                    "colorLayers" : {}, 
                    "uvLayers" : {}
                }
            }, 
            "name" : "E14.5 XX 15-40-26.wrl", 
            "primitives" : [
                {
                    "attributes" : {
                        "NORMAL" : 2, 
                        "POSITION" : 1
                    }, 
                    "indices" : 0, 
                    "material" : 1, 
                    "mode" : 4
                }
            ]
        }
    ], 
    "nodes" : [
        {
            "camera" : 0, 
            "extensions" : {
                "S8S_v3d_node_data" : {
                    "frustumCulling" : true, 
                    "hidden" : false, 
                    "renderOrder" : 0
                }
            }, 
            "name" : "Camera", 
            "rotation" : [
                -0.15128950774669647, 
                -0.030258936807513237, 
                -0.04892946407198906, 
                0.9868140816688538
            ], 
            "scale" : [
                1.0, 
                1.0, 
                0.9999999403953552
            ], 
            "translation" : [
                8.829924583435059, 
                12.645167350769043, 
                27.769824981689453
            ]
        }, 
        {
            "extensions" : {
                "S8S_v3d_node_data" : {
                    "frustumCulling" : true, 
                    "hidden" : false, 
                    "renderOrder" : 0
                }
            }, 
            "mesh" : 0, 
            "name" : "E14.5 XX 15-40-26.wrl", 
            "scale" : [
                -0.022682785987854004, 
                -0.022682785987854004, 
                -0.022682785987854004
            ]
        }, 
        {
            "extensions" : {
                "S8S_v3d_node_data" : {
                    "frustumCulling" : true, 
                    "hidden" : false, 
                    "light" : 0, 
                    "renderOrder" : 0
                }
            }, 
            "name" : "Lamp", 
            "rotation" : [
                -0.2841663062572479, 
                0.7269423604011536, 
                0.34203389286994934, 
                0.5232754945755005
            ], 
            "scale" : [
                0.9999999403953552, 
                0.9999997615814209, 
                0.9999998807907104
            ], 
            "translation" : [
                3.4945523738861084, 
                1.8438653945922852, 
                8.266786575317383
            ]
        }
    ], 
    "scene" : 0, 
    "scenes" : [
        {
            "extensions" : {
                "S8S_v3d_scene_data" : {
                    "aaMethod" : "AUTO", 
                    "light" : 1, 
                    "shadowMap" : {
                        "renderReverseSided" : false, 
                        "renderSingleSided" : true, 
                        "type" : "PCFSOFT"
                    }, 
                    "worldMaterial" : 0
                }
            }, 
            "extras" : {
                "animFrameRate" : 24
            }, 
            "name" : "Scene", 
            "nodes" : [
                1, 
                2, 
                0
            ]
        }
    ]
}
